<svg xmlns="http://www.w3.org/2000/svg" xmlns:xlink="http://www.w3.org/1999/xlink" width="16" height="16" viewBox="0 0 16 16">
    <defs>
        <path id="a" d="M5.5 3a.5.5 0 0 1-.5-.5v-1a.5.5 0 0 1 1 0V2h3.5a.5.5 0 0 1 0 1h-4zm0 5a.5.5 0 0 1 0 1h-1a.5.5 0 0 1 0-1h1zm3 0a.5.5 0 0 1 0 1h-1a.5.5 0 0 1 0-1h1zm3 0a.5.5 0 0 1 0 1h-1a.5.5 0 0 1 0-1h1zm-6 3a.5.5 0 0 1 0 1h-1a.5.5 0 0 1 0-1h1zm3 0a.5.5 0 0 1 0 1h-1a.5.5 0 0 1 0-1h1zm3 0a.5.5 0 0 1 0 1h-1a.5.5 0 0 1 0-1h1zm1 3h-9c-.827 0-1.5-.673-1.5-1.5V6h12v6.5c0 .827-.673 1.5-1.5 1.5m0-12H12v-.5a.5.5 0 0 0-1 0v1a.5.5 0 0 0 .5.5h1c.827 0 1.5.673 1.5 1.5V5H2v-.5C2 3.673 2.673 3 3.5 3a.5.5 0 0 0 0-1A2.503 2.503 0 0 0 1 4.5v8C1 13.879 2.122 15 3.5 15h9c1.379 0 2.5-1.121 2.5-2.5v-8C15 3.122 13.879 2 12.5 2"/>
    </defs>
    <g fill="none" fill-rule="evenodd">
        <mask id="b" fill="#fff">
            <use xlink:href="#a"/>
        </mask>
        <use fill="#ACBABF" xlink:href="#a"/>
        <g fill="#ACBABF" mask="url(#b)">
            <path d="M0 0h16v16H0z"/>
        </g>
    </g>
</svg>
