<svg xmlns="http://www.w3.org/2000/svg" xmlns:xlink="http://www.w3.org/1999/xlink" width="16" height="16" viewBox="0 0 16 16">
    <defs>
        <path id="a" d="M8.707 8l3.146-3.146a.5.5 0 1 0-.707-.708L8 7.293 4.853 4.146a.5.5 0 0 0-.707.708L7.293 8l-3.147 3.146A.502.502 0 0 0 4.5 12a.498.498 0 0 0 .353-.146L8 8.707l3.146 3.147a.502.502 0 0 0 .707 0 .5.5 0 0 0 0-.708L8.707 8z"/>
    </defs>
    <g fill="none" fill-rule="evenodd">
        <mask id="b" fill="#fff">
            <use xlink:href="#a"/>
        </mask>
        <use fill="#000" xlink:href="#a"/>
        <g fill="#ACBABF" mask="url(#b)">
            <path d="M0 0h16v16H0z"/>
        </g>
    </g>
</svg>
