<svg xmlns="http://www.w3.org/2000/svg" width="160" height="21" viewBox="0 0 160 21">
    <path fill="#354C55" fill-rule="evenodd" d="M124.422 16.099a4.62 4.62 0 0 1-1.619-1.284 5.73 5.73 0 0 1-1.002-1.938 8.232 8.232 0 0 1-.341-2.422c0-.871.117-1.679.352-2.422a5.898 5.898 0 0 1 1.013-1.938c.44-.548.983-.976 1.63-1.284.645-.308 1.38-.462 2.202-.462 1.262 0 2.293.33 3.093.991.8.661 1.296 1.592 1.487 2.794h-1.366c-.161-.871-.517-1.524-1.067-1.96-.55-.436-1.267-.653-2.147-.653-.66 0-1.23.13-1.707.394-.477.263-.87.616-1.178 1.059a4.64 4.64 0 0 0-.683 1.566c-.147.6-.22 1.239-.22 1.915 0 .676.077 1.31.231 1.904a4.95 4.95 0 0 0 .694 1.566c.308.45.697.803 1.167 1.059.47.255 1.028.383 1.673.383.97 0 1.744-.282 2.324-.845.58-.564.928-1.318 1.046-2.265h1.299c-.132 1.322-.602 2.37-1.41 3.143-.807.774-1.893 1.16-3.259 1.16-.836 0-1.574-.153-2.212-.461zm15.044-1.093a3.452 3.452 0 0 0 1.211-1.059c.323-.45.565-.976.727-1.577.161-.6.242-1.24.242-1.915 0-.676-.08-1.315-.242-1.915a4.838 4.838 0 0 0-.727-1.577 3.457 3.457 0 0 0-1.21-1.06c-.485-.255-1.043-.383-1.674-.383-.646 0-1.208.128-1.685.383-.477.256-.88.609-1.211 1.06a4.7 4.7 0 0 0-.738 1.577c-.161.6-.242 1.239-.242 1.915 0 .676.08 1.314.242 1.915.162.601.408 1.127.738 1.577.33.45.734.804 1.21 1.06.478.255 1.04.382 1.686.382.63 0 1.189-.127 1.673-.383zM135.58 16.1a4.782 4.782 0 0 1-1.662-1.284 5.82 5.82 0 0 1-1.046-1.938 7.777 7.777 0 0 1-.363-2.422c0-.871.12-1.679.363-2.422a5.823 5.823 0 0 1 1.046-1.938 4.785 4.785 0 0 1 1.662-1.284c.654-.308 1.391-.462 2.214-.462.821 0 1.556.154 2.202.462a4.816 4.816 0 0 1 1.651 1.284c.455.548.8 1.194 1.035 1.938.235.743.352 1.55.352 2.422a8 8 0 0 1-.352 2.422 5.67 5.67 0 0 1-1.035 1.938 4.813 4.813 0 0 1-1.651 1.284c-.646.308-1.38.462-2.202.462-.823 0-1.56-.154-2.214-.462zm10.746-11.48v1.758h.045a4.759 4.759 0 0 1 1.387-1.442c.558-.376 1.248-.564 2.07-.564.704 0 1.328.177 1.871.53.544.353.933.882 1.167 1.588h.045a4.135 4.135 0 0 1 1.508-1.566c.624-.368 1.34-.552 2.147-.552.485 0 .936.08 1.354.237.419.158.782.39 1.09.699.309.307.55.687.727 1.137.176.45.264.97.264 1.555v8.269h-1.343V8.112c0-.872-.224-1.514-.672-1.927-.447-.413-1.024-.62-1.728-.62a3.11 3.11 0 0 0-1.19.226c-.367.15-.693.364-.98.642a2.88 2.88 0 0 0-.67 1.037 3.774 3.774 0 0 0-.243 1.385v7.413h-1.365V8.112c0-.872-.217-1.514-.65-1.927-.433-.413-.98-.62-1.64-.62-.412 0-.808.083-1.19.249a3.382 3.382 0 0 0-1.024.687c-.3.293-.54.642-.715 1.047a3.247 3.247 0 0 0-.265 1.307v7.413h-1.365V4.619h1.365zm-26.221 10.324c0 .906-.718 1.64-1.604 1.64-.885 0-1.603-.734-1.603-1.64 0-.907.718-1.641 1.603-1.641.886 0 1.604.734 1.604 1.64zm-92.919 1.19a5.358 5.358 0 0 1-1.817-1.296 5.8 5.8 0 0 1-1.156-1.938 6.942 6.942 0 0 1-.407-2.4c0-.855.132-1.655.396-2.399a5.747 5.747 0 0 1 1.134-1.937 5.329 5.329 0 0 1 1.773-1.296c.69-.315 1.468-.473 2.334-.473.734 0 1.395.105 1.982.315.587.21 1.097.5 1.53.868a4.41 4.41 0 0 1 1.057 1.329c.272.518.46 1.093.562 1.724h-2.929a2.33 2.33 0 0 0-.694-1.273c-.36-.338-.818-.507-1.376-.507-.91 0-1.593.326-2.048.98-.455.653-.682 1.543-.682 2.67 0 1.096.216 1.979.65 2.647.432.669 1.111 1.003 2.036 1.003.617 0 1.123-.161 1.52-.484.396-.324.645-.815.748-1.476h2.885a4.711 4.711 0 0 1-.451 1.723 4.587 4.587 0 0 1-1.035 1.397 4.826 4.826 0 0 1-1.564.947c-.61.233-1.288.349-2.037.349-.895 0-1.7-.158-2.411-.473zm12.153-9.914c.412-.616.867-1.074 1.366-1.375.499-.3 1.137-.45 1.915-.45.588 0 1.12.109 1.597.326.477.218.884.519 1.222.902.338.383.602.837.793 1.363.19.526.286 1.104.286 1.735v7.548h-2.995V9.17c0-.631-.169-1.142-.506-1.532-.338-.391-.822-.587-1.454-.587-.66 0-1.207.245-1.64.733-.433.488-.65 1.13-.65 1.926v6.557h-2.995V.158h2.995v6.061h.066zm12.583 1.205c-.411.443-.683 1.048-.815 1.814h5.02c-.043-.736-.282-1.333-.715-1.791-.433-.458-.994-.687-1.684-.687-.793 0-1.395.221-1.806.664zm-.451 8.709a5.307 5.307 0 0 1-1.84-1.296 5.5 5.5 0 0 1-1.133-1.949 7.404 7.404 0 0 1-.386-2.41c0-.857.136-1.657.408-2.4a5.761 5.761 0 0 1 1.145-1.927 5.438 5.438 0 0 1 1.761-1.284 5.32 5.32 0 0 1 2.258-.473c.91 0 1.71.169 2.4.507.69.338 1.27.815 1.74 1.43.47.616.825 1.349 1.068 2.197.242.85.363 1.792.363 2.828h-8.192c.118.901.415 1.607.892 2.118.477.51 1.141.766 1.993.766.587 0 1.057-.127 1.41-.383.351-.255.609-.6.77-1.036h2.95c-.102.51-.29.995-.56 1.453-.273.458-.625.86-1.058 1.205a5.1 5.1 0 0 1-1.53.823 5.977 5.977 0 0 1-1.96.304c-.94 0-1.773-.158-2.5-.473zm12.259 0a5.358 5.358 0 0 1-1.817-1.296 5.796 5.796 0 0 1-1.156-1.938 6.942 6.942 0 0 1-.408-2.4c0-.855.132-1.655.397-2.399a5.75 5.75 0 0 1 1.134-1.937 5.325 5.325 0 0 1 1.772-1.296c.69-.315 1.469-.473 2.334-.473.735 0 1.395.105 1.982.315.587.21 1.098.5 1.53.868.434.368.786.811 1.058 1.329a5.63 5.63 0 0 1 .561 1.724h-2.928a2.33 2.33 0 0 0-.694-1.273c-.36-.338-.819-.507-1.376-.507-.91 0-1.593.326-2.048.98-.455.653-.683 1.543-.683 2.67 0 1.096.217 1.979.65 2.647.433.669 1.112 1.003 2.037 1.003.616 0 1.123-.161 1.519-.484.396-.324.646-.815.749-1.476h2.884a4.707 4.707 0 0 1-.45 1.723 4.587 4.587 0 0 1-1.036 1.397 4.827 4.827 0 0 1-1.564.947c-.609.233-1.288.349-2.036.349-.896 0-1.7-.158-2.411-.473zm12.065-3.763v3.898H72.82V.158h2.973V9.08l4.008-4.37h3.589l-4.162 4.393 4.668 7.165h-3.633l-3.171-5.272-1.3 1.374zm15.918.856c.492-.69.738-1.6.738-2.726 0-1.127-.246-2.04-.738-2.738-.491-.698-1.2-1.047-2.125-1.047-.924 0-1.633.349-2.125 1.047-.491.699-.737 1.611-.737 2.738s.246 2.035.737 2.726c.492.691 1.2 1.037 2.125 1.037s1.634-.346 2.125-1.037zm-4.525 2.907a5.69 5.69 0 0 1-1.86-1.296 5.801 5.801 0 0 1-1.212-1.937 6.622 6.622 0 0 1-.43-2.4c0-.856.144-1.656.43-2.4.286-.743.69-1.39 1.212-1.937a5.686 5.686 0 0 1 1.86-1.296c.72-.315 1.52-.473 2.4-.473.881 0 1.681.158 2.4.473.72.315 1.34.747 1.861 1.296A5.806 5.806 0 0 1 95.06 8.1c.286.744.429 1.544.429 2.4 0 .856-.143 1.656-.43 2.4a5.805 5.805 0 0 1-1.21 1.937 5.688 5.688 0 0 1-1.862 1.296c-.719.315-1.519.473-2.4.473-.88 0-1.68-.158-2.4-.473zm17.077-1.217h-.066a4.425 4.425 0 0 1-1.31 1.228c-.492.293-1.134.44-1.927.44-1.263 0-2.232-.376-2.907-1.127-.675-.751-1.013-1.765-1.013-3.042V4.709h2.973v7.188c0 .676.15 1.194.452 1.555.3.36.774.54 1.42.54.704 0 1.259-.244 1.662-.732.404-.488.606-1.115.606-1.881v-6.67h2.995v11.559h-2.885v-1.352zm5.796-10.207V1.104h2.929V4.71h1.938v2.028h-1.938v6.129c0 .435.103.736.308.901.206.165.477.248.815.248h.572c.103 0 .206-.008.309-.023v2.253a4.74 4.74 0 0 1-.485.023c-.161.015-.36.022-.594.022h-.793c-.367 0-.73-.04-1.09-.123a2.702 2.702 0 0 1-.98-.44 2.324 2.324 0 0 1-.716-.856c-.183-.36-.275-.811-.275-1.352V6.737h-1.563V4.709h1.563zM7.372 19.718h8.878l-4.439-7.928-4.439 7.928zm-1.087-17.8L1.353 10.5l4.932 8.582 4.804-8.582-4.804-8.582zM11.81 9.21l4.44-7.928H7.371l4.44 7.928zm.722 1.29l5.342 9.54a.653.653 0 0 1-.002.64.624.624 0 0 1-.542.32H6.291a.607.607 0 0 1-.162-.022c-.035-.01-.066-.027-.1-.042-.015-.008-.033-.012-.049-.02a.631.631 0 0 1-.112-.088c-.005-.005-.011-.007-.016-.012a.653.653 0 0 1-.1-.132l-5.666-9.86a.654.654 0 0 1 0-.649L5.751.316a.649.649 0 0 1 .101-.132c.005-.005.01-.008.016-.012A.631.631 0 0 1 5.98.084c.016-.009.034-.013.05-.02.033-.016.064-.033.1-.042A.624.624 0 0 1 6.29 0h11.04c.223 0 .43.122.542.32a.654.654 0 0 1 .002.64l-5.342 9.54z"/>
</svg>
