<?xml version="1.0" encoding="utf-8"?>
<!-- Generator: Adobe Illustrator 23.0.2, SVG Export Plug-In . SVG Version: 6.00 Build 0)  -->
<svg version="1.1" id="Layer_1" xmlns="http://www.w3.org/2000/svg" xmlns:xlink="http://www.w3.org/1999/xlink" x="0px" y="0px"
	 viewBox="0 0 16 16" style="enable-background:new 0 0 16 16;" xml:space="preserve">
<g>
	<path d="M13.5,2H10V0.5c0-0.2-0.1-0.3-0.2-0.4C9.7,0,9.5,0,9.4,0l-7,2C2.1,2.1,2,2.3,2,2.5v12C2,14.7,2.2,15,2.4,15l7,1
		c0,0,0,0,0.1,0c0.1,0,0.2,0,0.3-0.1c0.1-0.1,0.2-0.2,0.2-0.4V15h3.5c0.3,0,0.5-0.2,0.5-0.5v-12C14,2.2,13.8,2,13.5,2z M9,14.9
		l-6-0.9V2.9l6-1.7V14.9z M13,14h-3V3h3V14z"/>
	<path d="M7.5,7h-1C6.2,7,6,7.2,6,7.5S6.2,8,6.5,8h1C7.8,8,8,7.8,8,7.5S7.8,7,7.5,7z"/>
</g>
</svg>
